<svg enable-background="new 0 0 58 58" height="512" viewBox="0 0 58 58" width="512" xmlns="http://www.w3.org/2000/svg"><path d="m54.75 58h-51.5c-1.795 0-3.25-1.455-3.25-3.25v-43.75h58v43.75c0 1.795-1.455 3.25-3.25 3.25z" fill="#e7eced"/><path d="m58 12h-58v-8.75c0-1.795 1.455-3.25 3.25-3.25h51.5c1.795 0 3.25 1.455 3.25 3.25z" fill="#556080"/><path d="m4 4h4v4h-4z" fill="#dd352e"/><path d="m12 4h4v4h-4z" fill="#ebba16"/><path d="m20 4h4v4h-4z" fill="#23a24d"/><path d="m4 16h22v22h-22z" fill="#fff"/><circle cx="13" cy="23" fill="#ebba16" r="3"/><path d="m20 27-6 11h12z" fill="#188439"/><path d="m32 16h22v22h-22z" fill="#fff"/><path d="m19 44h-15c-.552 0-1-.448-1-1s.448-1 1-1h15c.552 0 1 .448 1 1s-.448 1-1 1z" fill="#ebba16"/><path d="m26 44h-3c-.552 0-1-.448-1-1s.448-1 1-1h3c.552 0 1 .448 1 1s-.448 1-1 1z" fill="#dd352e"/><path d="m19 54h-15c-.552 0-1-.448-1-1s.448-1 1-1h15c.552 0 1 .448 1 1s-.448 1-1 1z" fill="#cb465f"/><path d="m26 54h-3c-.552 0-1-.448-1-1s.448-1 1-1h3c.552 0 1 .448 1 1s-.448 1-1 1z" fill="#75348b"/><path d="m26 49h-15c-.552 0-1-.448-1-1s.448-1 1-1h15c.552 0 1 .448 1 1s-.448 1-1 1z" fill="#366db6"/><path d="m7 49h-3c-.552 0-1-.448-1-1s.448-1 1-1h3c.552 0 1 .448 1 1s-.448 1-1 1z" fill="#ed8a19"/><path d="m47 44h-15c-.552 0-1-.448-1-1s.448-1 1-1h15c.552 0 1 .448 1 1s-.448 1-1 1z" fill="#ebba16"/><path d="m54 44h-3c-.552 0-1-.448-1-1s.448-1 1-1h3c.552 0 1 .448 1 1s-.448 1-1 1z" fill="#75348b"/><path d="m47 54h-15c-.552 0-1-.448-1-1s.448-1 1-1h15c.552 0 1 .448 1 1s-.448 1-1 1z" fill="#ed8a19"/><path d="m54 54h-3c-.552 0-1-.448-1-1s.448-1 1-1h3c.552 0 1 .448 1 1s-.448 1-1 1z" fill="#dd352e"/><path d="m54 49h-15c-.552 0-1-.448-1-1s.448-1 1-1h15c.552 0 1 .448 1 1s-.448 1-1 1z" fill="#366db6"/><path d="m35 49h-3c-.552 0-1-.448-1-1s.448-1 1-1h3c.552 0 1 .448 1 1s-.448 1-1 1z" fill="#23a24d"/><path d="m10 31-6 7h12z" fill="#23a24d"/><circle cx="41" cy="23" fill="#ebba16" r="3"/><path d="m48 27-6 11h12z" fill="#188439"/><path d="m38 31-6 7h12z" fill="#23a24d"/></svg>