<svg enable-background="new 0 0 58 58" height="512" viewBox="0 0 58 58" width="512" xmlns="http://www.w3.org/2000/svg"><path d="m54.75 58h-51.5c-1.795 0-3.25-1.455-3.25-3.25v-43.75h58v43.75c0 1.795-1.455 3.25-3.25 3.25z" fill="#e7eced"/><path d="m21 17h32v36h-32z" fill="#ebba16"/><path d="m5 17h18v36h-18z" fill="#366db6"/><path d="m58 12h-58v-8.75c0-1.795 1.455-3.25 3.25-3.25h51.5c1.795 0 3.25 1.455 3.25 3.25z" fill="#556080"/><path d="m4 4h4v4h-4z" fill="#dd352e"/><path d="m12 4h4v4h-4z" fill="#ebba16"/><path d="m20 4h4v4h-4z" fill="#23a24d"/><path d="m18 39h-8c-.552 0-1-.447-1-1s.448-1 1-1h8c.552 0 1 .447 1 1s-.448 1-1 1z" fill="#fff"/><path d="m18 43h-8c-.552 0-1-.447-1-1s.448-1 1-1h8c.552 0 1 .447 1 1s-.448 1-1 1z" fill="#fff"/><path d="m18 47h-8c-.552 0-1-.447-1-1s.448-1 1-1h8c.552 0 1 .447 1 1s-.448 1-1 1z" fill="#fff"/><path d="m16.93 25.347c-.245-1.154-1.204-2.083-2.365-2.295-1.905-.348-3.565 1.106-3.565 2.948 0 .821.333 1.56.868 2.101.163.165.141.444-.053.571-1.023.671-1.718 1.793-1.8 3.08 1.132.785 2.504 1.248 3.985 1.248s2.853-.463 3.984-1.248c-.081-1.288-.777-2.409-1.8-3.081-.194-.127-.216-.406-.052-.571.674-.68 1.027-1.677.798-2.753z" fill="#fff"/><path d="m27 21h22v16h-22z" fill="#fff"/><path d="m43 26-8 11h2 12v-4z" fill="#188439"/><g fill="#fff"><path d="m42 42h-15c-.552 0-1-.447-1-1s.448-1 1-1h15c.552 0 1 .447 1 1s-.448 1-1 1z"/><path d="m49 42h-3c-.552 0-1-.447-1-1s.448-1 1-1h3c.552 0 1 .447 1 1s-.448 1-1 1z"/><path d="m42 50h-15c-.552 0-1-.447-1-1s.448-1 1-1h15c.552 0 1 .447 1 1s-.448 1-1 1z"/><path d="m49 50h-3c-.552 0-1-.447-1-1s.448-1 1-1h3c.552 0 1 .447 1 1s-.448 1-1 1z"/><path d="m49 46h-15c-.552 0-1-.447-1-1s.448-1 1-1h15c.552 0 1 .447 1 1s-.448 1-1 1z"/><path d="m30 46h-3c-.552 0-1-.447-1-1s.448-1 1-1h3c.552 0 1 .447 1 1s-.448 1-1 1z"/></g><path d="m33 30-6 7h12z" fill="#23a24d"/></svg>